<svg id="wave" style="transform:rotate(180deg); transition: 0.3s" viewBox="0 0 1440 490" version="1.1" xmlns="http://www.w3.org/2000/svg"><defs><linearGradient id="sw-gradient-0" x1="0" x2="0" y1="1" y2="0"><stop stop-color="rgba(253, 116, 155, 1)" offset="0%"></stop><stop stop-color="rgba(40, 26, 200, 1)" offset="100%"></stop></linearGradient></defs><path style="transform:translate(0, 0px); opacity:1" fill="url(#sw-gradient-0)" d="M0,147L40,163.3C80,180,160,212,240,261.3C320,310,400,376,480,359.3C560,343,640,245,720,204.2C800,163,880,180,960,163.3C1040,147,1120,98,1200,130.7C1280,163,1360,278,1440,269.5C1520,261,1600,131,1680,98C1760,65,1840,131,1920,130.7C2000,131,2080,65,2160,40.8C2240,16,2320,33,2400,40.8C2480,49,2560,49,2640,89.8C2720,131,2800,212,2880,245C2960,278,3040,261,3120,261.3C3200,261,3280,278,3360,302.2C3440,327,3520,359,3600,383.8C3680,408,3760,425,3840,359.3C3920,294,4000,147,4080,89.8C4160,33,4240,65,4320,138.8C4400,212,4480,327,4560,334.8C4640,343,4720,245,4800,196C4880,147,4960,147,5040,187.8C5120,229,5200,310,5280,285.8C5360,261,5440,131,5520,122.5C5600,114,5680,229,5720,285.8L5760,343L5760,490L5720,490C5680,490,5600,490,5520,490C5440,490,5360,490,5280,490C5200,490,5120,490,5040,490C4960,490,4880,490,4800,490C4720,490,4640,490,4560,490C4480,490,4400,490,4320,490C4240,490,4160,490,4080,490C4000,490,3920,490,3840,490C3760,490,3680,490,3600,490C3520,490,3440,490,3360,490C3280,490,3200,490,3120,490C3040,490,2960,490,2880,490C2800,490,2720,490,2640,490C2560,490,2480,490,2400,490C2320,490,2240,490,2160,490C2080,490,2000,490,1920,490C1840,490,1760,490,1680,490C1600,490,1520,490,1440,490C1360,490,1280,490,1200,490C1120,490,1040,490,960,490C880,490,800,490,720,490C640,490,560,490,480,490C400,490,320,490,240,490C160,490,80,490,40,490L0,490Z"></path></svg>